<?xml version="1.0" standalone="no"?>
<!DOCTYPE svg PUBLIC "-//W3C//DTD SVG 20010904//EN"
 "http://www.w3.org/TR/2001/REC-SVG-20010904/DTD/svg10.dtd">
<svg version="1.0" xmlns="http://www.w3.org/2000/svg"
 width="972.000000pt" height="972.000000pt" viewBox="0 0 972.000000 972.000000"
 preserveAspectRatio="xMidYMid meet">
<metadata>
Created by potrace 1.14, written by Peter Selinger 2001-2017
</metadata>
<g transform="translate(0.000000,972.000000) scale(0.100000,-0.100000)"
fill="#000000" stroke="none">
<path d="M4197 9224 c-1 -1 -65 -5 -142 -8 -77 -4 -149 -9 -160 -11 -11 -2
-47 -7 -80 -10 -33 -3 -71 -7 -85 -9 -42 -7 -173 -28 -201 -32 -22 -3 -224
-47 -269 -58 -107 -28 -159 -43 -267 -77 -133 -43 -311 -110 -398 -149 -166
-76 -252 -118 -350 -172 -111 -62 -299 -176 -345 -210 -14 -10 -88 -65 -165
-122 -310 -229 -613 -525 -820 -800 -248 -331 -509 -783 -540 -936 -2 -8 -22
-53 -45 -99 -62 -123 -162 -445 -186 -598 -3 -21 -8 -41 -10 -44 -2 -3 -6 -21
-9 -40 -3 -19 -12 -65 -20 -104 -15 -75 -29 -154 -30 -170 -2 -11 -18 -117
-20 -125 -6 -26 -23 -171 -30 -253 -14 -184 -16 -276 -14 -637 1 -217 2 -874
1 -1460 -1 -1573 0 -2332 1 -2360 3 -37 58 -141 92 -173 57 -53 84 -56 588
-58 1850 -6 2943 -1 3057 15 48 6 70 18 84 44 18 36 12 76 -17 121 -14 20
-346 358 -738 751 -889 890 -833 816 -854 1135 -21 308 -28 644 -29 1215 0
449 8 850 19 1015 2 28 6 97 10 155 6 104 8 123 20 250 16 162 49 287 127 490
37 96 72 171 98 210 56 85 121 198 131 228 16 50 267 308 434 447 269 224 644
399 945 441 25 3 56 8 70 10 143 22 473 22 590 0 14 -3 43 -7 65 -10 22 -2 51
-7 65 -10 14 -3 36 -8 50 -10 183 -30 506 -159 668 -267 24 -16 45 -29 47 -29
3 0 51 -35 107 -77 301 -227 559 -571 701 -933 42 -106 97 -289 112 -372 12
-65 15 -85 20 -113 3 -16 7 -39 9 -50 23 -115 23 -495 1 -605 -3 -14 -7 -38
-9 -55 -7 -50 -36 -188 -45 -215 -5 -14 -19 -59 -31 -100 -53 -178 -142 -365
-254 -535 -131 -199 -244 -319 -446 -478 -92 -72 -306 -188 -457 -247 -89 -35
-301 -101 -366 -114 -12 -3 -65 -14 -117 -25 -52 -11 -108 -22 -124 -25 -88
-16 -138 -31 -145 -45 -21 -40 11 -145 61 -202 59 -67 90 -99 159 -163 165
-155 964 -956 1504 -1507 201 -205 250 -250 298 -273 61 -29 154 -51 247 -60
171 -16 2185 -25 2560 -12 251 9 299 12 351 26 35 10 39 14 39 43 0 56 -50
134 -165 256 -65 70 -255 257 -295 291 -36 31 -141 134 -330 325 -91 92 -248
246 -349 343 -465 445 -526 526 -515 678 8 98 28 147 206 494 167 327 258 563
344 895 4 17 8 32 9 35 4 15 26 120 31 146 2 16 9 52 14 79 6 28 12 64 14 80
3 17 7 53 11 80 4 28 8 61 10 75 6 37 15 146 20 225 5 80 5 415 0 490 -4 69
-14 182 -20 230 -3 22 -7 60 -10 85 -28 232 -108 569 -197 835 -77 231 -236
588 -343 775 -21 36 -45 79 -55 95 -95 165 -343 524 -411 595 -8 8 -32 37 -54
65 -22 27 -47 57 -55 66 -8 8 -49 53 -90 99 -169 189 -376 378 -555 506 -71
51 -247 165 -275 177 -8 4 -28 16 -45 27 -34 21 -364 187 -438 220 -160 69
-435 168 -574 206 -177 47 -248 65 -339 84 -131 27 -141 29 -189 35 -22 3 -47
8 -55 10 -8 2 -37 7 -65 10 -27 3 -68 8 -90 10 -143 18 -304 27 -482 29 -95 1
-175 1 -176 0z"/>
</g>
</svg>
